# xmcd
#
# Track frame offsets:
#      150
#      17775
#      30302
#      50842
#      69257
#      86717
#      104505
#      124442
#      145547
#      162977
#      180152
#      197455
#      210067
#      230580
#      247247
#      270017
# 
# Disc length: 3770 seconds
#
# Revision: 2
# Processed by: cddbd v1.4PL0 Copyright (c) Steve Scherf et al.
#
# Submitted via: FreeRIP 1.21
#
DISCID=cf0eb810
DTITLE=Olsen Brothers - Wings Of Love
DYEAR=1900
DGENRE=country
TTITLE0=Fly On The Wings Of Love
TTITLE1=
TTITLE2=
TTITLE3=
TTITLE4=
TTITLE5=
TTITLE6=
TTITLE7=
TTITLE8=
TTITLE9=
TTITLE10=
TTITLE11=
TTITLE12=
TTITLE13=
TTITLE14=
TTITLE15=
EXTD=
EXTT0=
EXTT1=
EXTT2=
EXTT3=
EXTT4=
EXTT5=
EXTT6=
EXTT7=
EXTT8=
EXTT9=
EXTT10=
EXTT11=
EXTT12=
EXTT13=
EXTT14=
EXTT15=
PLAYORDER=
